{"title":"House (1986) DVDRip","uid":5855898,"size":735015487,"categoryP":"video","categoryS":"movies","magnet":"?xt=urn:btih:c49cfdd713fb396292134c37692ce1b588ebd9b9&amp;dn=House+%281986%29+DVDRip&amp;tr=udp%3A%2F%2Ftracker.openbittorrent.com%3A80&amp;tr=udp%3A%2F%2Fopen.demonii.com%3A1337&amp;tr=udp%3A%2F%2Ftracker.coppersurfer.tk%3A6969&amp;tr=udp%3A%2F%2Fexodus.desync.com%3A6969","seeders":4,"leechers":0,"uploader":"neon","files":-1,"time":1285613145,"description":"Roger Cobb (William Katt) is a Vietnam veteran and horror novelist. After his son Jimmy disappears while visiting his aunt, Roger's search for Jimmy ruins his marriage and writing career. After Roger's aunt suddenly dies, Cobb moves into her house to work on a novel based on his experiences in the war. As strange occurrences start happening around him, Roger becomes aware that the house is evil, not to mention ghost-infested, and it resents his presence in it. The ghosts force him to endure a journey into his past and face his 'demons'\n &lt;a href=&quot;\nhttp://www.imdb.com/title/tt0091223/&quot; rel=&quot;nofollow&quot; target=&quot;_NEW&quot;&gt;\nhttp://www.imdb.com/title/tt0091223/&lt;/a&gt;\n\nVideo\nID : 0\nFormat : MPEG-4 Visual\nFormat profile : Advanced Simple@L5\nFormat settings, BVOP : Yes\nFormat settings, QPel : No\nFormat settings, GMC : No warppoints\nFormat settings, Matrix : Custom\nCodec ID : XVID\nCodec ID/Hint : XviD\nDuration : 1h 28mn\nBit rate : 976 Kbps\nWidth : 640 pixels\nHeight : 336 pixels\nDisplay aspect ratio : 1.905\nFrame rate : 25.000 fps\nColor space : YUV\nChroma subsampling : 4:2:0\nBit depth : 8 bits\nScan type : Progressive\nBits/(Pixel*Frame) : 0.182\nStream size : 616 MiB (88%)\nWriting library : XviD 1.2.1 (UTC 2008-12-04)\n\nAudio\nID : 1\nFormat : MPEG Audio\nFormat version : Version 1\nFormat profile : Layer 3\nMode : Joint stereo\nMode extension : MS Stereo\nCodec ID : 55\nCodec ID/Hint : MP3\nDuration : 1h 28mn\nBit rate mode : Variable\nBit rate : 121 Kbps\nNominal bit rate : 128 Kbps\nChannel(s) : 2 channels\nSampling rate : 48.0 KHz\nVideo delay : 216ms\nStream size : 76.1 MiB (11%)\nAlignment : Split accross interleaves\nInterleave, duration : 24 ms (0.60 video frame)\nInterleave, preload duration : 999 ms\nWriting library : LAME3.98r\nEncoding settings : -m j -V 4 -q 2 -lowpass 17 --abr 128\nLanguage : English","torrent":{"xt":"urn:btih:c49cfdd713fb396292134c37692ce1b588ebd9b9","amp;dn":"House+%281986%29+DVDRip","amp;tr":["udp%3A%2F%2Ftracker.openbittorrent.com%3A80","udp%3A%2F%2Fopen.demonii.com%3A1337","udp%3A%2F%2Ftracker.coppersurfer.tk%3A6969","udp%3A%2F%2Fexodus.desync.com%3A6969"],"infoHash":"c49cfdd713fb396292134c37692ce1b588ebd9b9","infoHashBuffer":{"type":"Buffer","data":[196,156,253,215,19,251,57,98,146,19,76,55,105,44,225,181,136,235,217,185]},"announce":[],"urlList":[]}}